<mxfile host="Electron" modified="2023-06-09T01:53:12.786Z" agent="Mozilla/5.0 (Windows NT 10.0; Win64; x64) AppleWebKit/537.36 (KHTML, like Gecko) draw.io/21.1.2 Chrome/106.0.5249.199 Electron/21.4.3 Safari/537.36" etag="_u4l32L3ng835ygXqhQw" version="21.1.2" type="device">
  <diagram id="OPJJyuxxKD-OVzjyU5gf" name="第 1 页">
    <mxGraphModel dx="1886" dy="983" grid="1" gridSize="10" guides="1" tooltips="1" connect="1" arrows="1" fold="1" page="1" pageScale="1" pageWidth="1654" pageHeight="1169" math="0" shadow="0">
      <root>
        <mxCell id="0" />
        <mxCell id="1" parent="0" />
        <mxCell id="sTEC8SizhlwPguVRKKxZ-1" value="" style="rounded=0;whiteSpace=wrap;html=1;sketch=1;hachureGap=4;jiggle=2;curveFitting=1;fontFamily=Architects Daughter;fontSource=https%3A%2F%2Ffonts.googleapis.com%2Fcss%3Ffamily%3DArchitects%2BDaughter;fontSize=20;" vertex="1" parent="1">
          <mxGeometry x="200" y="270" width="590" height="390" as="geometry" />
        </mxCell>
        <mxCell id="sTEC8SizhlwPguVRKKxZ-14" value="" style="ellipse;whiteSpace=wrap;html=1;sketch=1;hachureGap=4;jiggle=2;curveFitting=1;fontFamily=Architects Daughter;fontSource=https%3A%2F%2Ffonts.googleapis.com%2Fcss%3Ffamily%3DArchitects%2BDaughter;fontSize=20;" vertex="1" parent="1">
          <mxGeometry x="255" y="450" width="370" height="50" as="geometry" />
        </mxCell>
        <mxCell id="sTEC8SizhlwPguVRKKxZ-2" value="&lt;b&gt;&lt;font color=&quot;#10a61b&quot;&gt;http &lt;/font&gt;:// &lt;font color=&quot;#cccc00&quot;&gt;example.com&lt;/font&gt; : &lt;font color=&quot;#cc6600&quot;&gt;8080&amp;nbsp;&lt;/font&gt;/&amp;nbsp;&lt;font color=&quot;#007fff&quot;&gt;foo&lt;/font&gt;&lt;/b&gt;" style="text;strokeColor=none;fillColor=none;html=1;align=center;verticalAlign=middle;whiteSpace=wrap;rounded=0;fontSize=20;fontFamily=Architects Daughter;" vertex="1" parent="1">
          <mxGeometry x="270" y="390" width="340" height="30" as="geometry" />
        </mxCell>
        <mxCell id="sTEC8SizhlwPguVRKKxZ-3" value="" style="shape=curlyBracket;whiteSpace=wrap;html=1;rounded=1;labelPosition=left;verticalLabelPosition=middle;align=right;verticalAlign=middle;sketch=1;hachureGap=4;jiggle=2;curveFitting=1;fontFamily=Architects Daughter;fontSource=https%3A%2F%2Ffonts.googleapis.com%2Fcss%3Ffamily%3DArchitects%2BDaughter;fontSize=20;direction=north;size=0.5;" vertex="1" parent="1">
          <mxGeometry x="280" y="430" width="30" height="20" as="geometry" />
        </mxCell>
        <mxCell id="sTEC8SizhlwPguVRKKxZ-4" value="" style="shape=curlyBracket;whiteSpace=wrap;html=1;rounded=1;labelPosition=left;verticalLabelPosition=middle;align=right;verticalAlign=middle;sketch=1;hachureGap=4;jiggle=2;curveFitting=1;fontFamily=Architects Daughter;fontSource=https%3A%2F%2Ffonts.googleapis.com%2Fcss%3Ffamily%3DArchitects%2BDaughter;fontSize=20;direction=north;size=0.5;" vertex="1" parent="1">
          <mxGeometry x="350" y="430" width="120" height="20" as="geometry" />
        </mxCell>
        <mxCell id="sTEC8SizhlwPguVRKKxZ-5" value="" style="shape=curlyBracket;whiteSpace=wrap;html=1;rounded=1;labelPosition=left;verticalLabelPosition=middle;align=right;verticalAlign=middle;sketch=1;hachureGap=4;jiggle=2;curveFitting=1;fontFamily=Architects Daughter;fontSource=https%3A%2F%2Ffonts.googleapis.com%2Fcss%3Ffamily%3DArchitects%2BDaughter;fontSize=20;direction=north;" vertex="1" parent="1">
          <mxGeometry x="500" y="430" width="40" height="20" as="geometry" />
        </mxCell>
        <mxCell id="sTEC8SizhlwPguVRKKxZ-6" value="" style="shape=curlyBracket;whiteSpace=wrap;html=1;rounded=1;labelPosition=left;verticalLabelPosition=middle;align=right;verticalAlign=middle;sketch=1;hachureGap=4;jiggle=2;curveFitting=1;fontFamily=Architects Daughter;fontSource=https%3A%2F%2Ffonts.googleapis.com%2Fcss%3Ffamily%3DArchitects%2BDaughter;fontSize=20;direction=north;size=0.5;" vertex="1" parent="1">
          <mxGeometry x="560" y="430" width="40" height="20" as="geometry" />
        </mxCell>
        <mxCell id="sTEC8SizhlwPguVRKKxZ-7" value="&lt;font color=&quot;#10a61b&quot;&gt;&lt;b&gt;Protocol&lt;/b&gt;&lt;/font&gt;" style="text;strokeColor=none;fillColor=none;html=1;align=center;verticalAlign=middle;whiteSpace=wrap;rounded=0;fontSize=20;fontFamily=Architects Daughter;" vertex="1" parent="1">
          <mxGeometry x="275" y="460" width="60" height="30" as="geometry" />
        </mxCell>
        <mxCell id="sTEC8SizhlwPguVRKKxZ-8" value="&lt;b&gt;&lt;font color=&quot;#cccc00&quot;&gt;domain&lt;/font&gt;&lt;/b&gt;" style="text;strokeColor=none;fillColor=none;html=1;align=center;verticalAlign=middle;whiteSpace=wrap;rounded=0;fontSize=20;fontFamily=Architects Daughter;" vertex="1" parent="1">
          <mxGeometry x="380" y="460" width="60" height="30" as="geometry" />
        </mxCell>
        <mxCell id="sTEC8SizhlwPguVRKKxZ-9" value="&lt;b&gt;&lt;font color=&quot;#cc6600&quot;&gt;port&lt;/font&gt;&lt;/b&gt;" style="text;strokeColor=none;fillColor=none;html=1;align=center;verticalAlign=middle;whiteSpace=wrap;rounded=0;fontSize=20;fontFamily=Architects Daughter;" vertex="1" parent="1">
          <mxGeometry x="490" y="460" width="60" height="30" as="geometry" />
        </mxCell>
        <mxCell id="sTEC8SizhlwPguVRKKxZ-10" value="&lt;b&gt;&lt;font color=&quot;#007fff&quot;&gt;path&lt;/font&gt;&lt;/b&gt;" style="text;strokeColor=none;fillColor=none;html=1;align=center;verticalAlign=middle;whiteSpace=wrap;rounded=0;fontSize=20;fontFamily=Architects Daughter;" vertex="1" parent="1">
          <mxGeometry x="550" y="460" width="60" height="30" as="geometry" />
        </mxCell>
        <mxCell id="sTEC8SizhlwPguVRKKxZ-11" value="" style="shape=curlyBracket;whiteSpace=wrap;html=1;rounded=1;flipH=1;labelPosition=right;verticalLabelPosition=middle;align=left;verticalAlign=middle;sketch=1;hachureGap=4;jiggle=2;curveFitting=1;fontFamily=Architects Daughter;fontSource=https%3A%2F%2Ffonts.googleapis.com%2Fcss%3Ffamily%3DArchitects%2BDaughter;fontSize=20;direction=south;" vertex="1" parent="1">
          <mxGeometry x="280" y="350" width="320" height="20" as="geometry" />
        </mxCell>
        <mxCell id="sTEC8SizhlwPguVRKKxZ-12" value="WEB URI" style="text;strokeColor=none;fillColor=none;html=1;align=center;verticalAlign=middle;whiteSpace=wrap;rounded=0;fontSize=20;fontFamily=Architects Daughter;" vertex="1" parent="1">
          <mxGeometry x="390" y="320" width="90" height="30" as="geometry" />
        </mxCell>
      </root>
    </mxGraphModel>
  </diagram>
</mxfile>
